<?xml version="1.0" encoding="UTF-8" standalone="no"?>
<svg
   xmlns:dc="http://purl.org/dc/elements/1.1/"
   xmlns:cc="http://creativecommons.org/ns#"
   xmlns:rdf="http://www.w3.org/1999/02/22-rdf-syntax-ns#"
   xmlns:svg="http://www.w3.org/2000/svg"
   xmlns="http://www.w3.org/2000/svg"
   xmlns:sodipodi="http://sodipodi.sourceforge.net/DTD/sodipodi-0.dtd"
   xmlns:inkscape="http://www.inkscape.org/namespaces/inkscape"
   version="1.1"
   width="217.71899"
   height="150.39299"
   viewBox="0 0 217.719 150.39298"
   id="svg2"
   inkscape:version="0.48.5 r10040"
   sodipodi:docname="auf-menu-logo.svg">
  <metadata
     id="metadata97">
    <rdf:RDF>
      <cc:Work
         rdf:about="">
        <dc:format>image/svg+xml</dc:format>
        <dc:type
           rdf:resource="http://purl.org/dc/dcmitype/StillImage" />
      </cc:Work>
    </rdf:RDF>
  </metadata>
  <defs
     id="defs95" />
  <sodipodi:namedview
     pagecolor="#ffffff"
     bordercolor="#666666"
     borderopacity="1"
     objecttolerance="10"
     gridtolerance="10"
     guidetolerance="10"
     inkscape:pageopacity="0"
     inkscape:pageshadow="2"
     inkscape:window-width="1920"
     inkscape:window-height="1056"
     id="namedview93"
     showgrid="false"
     fit-margin-top="0"
     fit-margin-left="0"
     fit-margin-right="0"
     fit-margin-bottom="0"
     inkscape:zoom="1.2797075"
     inkscape:cx="108.761"
     inkscape:cy="75.263479"
     inkscape:window-x="0"
     inkscape:window-y="24"
     inkscape:window-maximized="1"
     inkscape:current-layer="svg2" />
  <style
     type="text/css"
     id="style4">
  /* RGB définis dans charte graphique */
  .bordeaux { fill: rgb(171,  1, 50) }
  .gris     { fill: rgb(169,170,172) }
  
  .bleu     { fill: rgb(  1,152,233) }
  .jaune    { fill: rgb(253,205,  1) }
  .vert     { fill: rgb(126,179,  1) }
  .mauve    { fill: rgb( 93,  0,115) }
  .rouge    { fill: rgb(228,  0,  1) }
  </style>
  <g
     id="Agence"
     class="gris"
     style="fill:#a9aaac"
     transform="translate(-11.579,-11.329006)">
    <path
       class="bordeaux"
       d="M 34.146,73.149 V 60.492 H 22.869 V 73.149 H 11.588 V 29.697 c 0,-10.13 7.559,-18.368 16.979,-18.368 9.297,0 16.857,8.238 16.857,18.368 V 73.149 H 34.146 z m -5.58,-49.531 c -3.22,0 -5.698,2.702 -5.698,6.079 V 48.204 H 34.145 V 29.697 c 10e-4,-3.377 -2.478,-6.079 -5.579,-6.079 z"
       id="path10"
       inkscape:connector-curvature="0"
       style="fill:#ab0132" />
    <path
       d="M 67.241,35.908 H 84.1 v 19.406 c 0,10.269 -7.561,17.754 -16.859,17.754 -9.418,0 -16.978,-7.485 -16.978,-17.754 V 29.832 c 0,-10.264 7.559,-18.502 16.978,-18.502 9.298,0 16.859,8.238 16.859,18.502 H 72.822 c 0,-3.512 -2.479,-6.213 -5.581,-6.213 -3.096,0 -5.701,2.702 -5.701,6.213 v 25.483 c 0,3.378 2.605,5.466 5.701,5.466 3.102,0 5.581,-2.088 5.581,-5.466 v -7.11 H 67.241 V 35.908 z"
       id="path12"
       inkscape:connector-curvature="0" />
    <path
       d="M 89.181,55.314 V 29.697 c 0,-10.13 7.56,-18.368 16.98,-18.368 h 11.278 v 12.289 h -11.278 c -3.102,0 -5.702,2.702 -5.702,6.079 v 6.211 h 16.98 v 12.296 h -16.98 v 7.11 c 0,3.378 2.601,5.328 5.702,5.328 h 11.278 v 12.29 h -11.278 c -9.42,0.001 -16.98,-7.486 -16.98,-17.618 z"
       id="path14"
       inkscape:connector-curvature="0" />
    <path
       d="M 156.771,29.832 V 73.069 H 145.49 V 29.832 c 0,-3.373 -2.477,-6.213 -5.576,-6.213 -3.101,0 -5.702,2.84 -5.702,6.213 V 73.069 H 122.935 V 29.832 c 0,-10.128 7.561,-18.502 16.979,-18.502 9.297,0 16.857,8.374 16.857,18.502 z"
       id="path16"
       inkscape:connector-curvature="0" />
    <path
       d="m 179.502,73.079 c -9.297,0 -16.854,-7.486 -16.854,-17.62 V 29.843 c 0,-10.13 7.558,-18.502 16.854,-18.502 9.294,0 16.854,8.372 16.854,18.502 H 185.08 c 0,-3.375 -2.478,-6.213 -5.577,-6.213 -3.098,0 -5.701,2.838 -5.701,6.213 v 25.616 c 0,3.379 2.604,5.33 5.701,5.33 3.1,0 5.577,-1.951 5.577,-5.33 h 11.277 c 0,10.134 -7.561,17.62 -16.855,17.62 z"
       id="path18"
       inkscape:connector-curvature="0" />
    <path
       d="M 201.039,55.314 V 29.697 c 0,-10.13 7.562,-18.368 16.982,-18.368 h 11.276 v 12.289 h -11.276 c -3.1,0 -5.702,2.702 -5.702,6.079 v 6.211 h 16.979 v 12.296 h -16.979 v 7.11 c 0,3.378 2.603,5.328 5.702,5.328 h 11.276 v 12.29 H 218.021 C 208.6,72.933 201.039,65.446 201.039,55.314 z"
       id="path20"
       inkscape:connector-curvature="0" />
  </g>
  <g
     id="universitaire"
     class="gris"
     style="fill:#a9aaac"
     transform="translate(-11.579,-11.329006)">
    <path
       class="bordeaux"
       d="m 22.506,76.963 h 5.488 v 26.95 c 0,4.934 -3.682,8.942 -8.203,8.942 -4.526,0 -8.203,-4.009 -8.203,-8.942 v -26.95 h 5.487 v 26.95 c 0,1.644 1.206,2.96 2.715,2.96 1.506,0 2.714,-1.316 2.714,-2.96 v -26.95 z"
       id="path23"
       inkscape:connector-curvature="0"
       style="fill:#ab0132" />
    <path
       d="m 48.051,85.968 v 26.888 H 42.563 V 85.968 c 0,-1.643 -1.21,-3.022 -2.714,-3.022 -1.508,0 -2.775,1.38 -2.775,3.022 v 26.888 h -5.49 V 85.968 c 0,-4.933 3.679,-9.005 8.265,-9.005 4.52,0 8.202,4.072 8.202,9.005 z"
       id="path25"
       inkscape:connector-curvature="0" />
    <path
       d="M 57.249,112.789 H 51.758 V 76.963 h 5.491 v 35.826 z"
       id="path27"
       inkscape:connector-curvature="0" />
    <path
       d="m 72.384,76.896 h 5.49 v 26.954 c 0,4.933 -3.68,8.938 -8.265,8.938 H 61.406 V 76.896 h 5.487 v 29.914 h 2.716 c 1.51,0 2.775,-1.318 2.775,-2.96 V 76.896 z"
       id="path29"
       inkscape:connector-curvature="0" />
    <path
       d="M 81.34,103.851 V 85.902 c 0,-4.934 3.679,-8.939 8.265,-8.939 h 5.493 v 5.982 h -5.493 c -1.51,0 -2.774,1.314 -2.774,2.957 v 3.023 h 8.268 v 5.986 h -8.268 v 8.938 c 0,1.642 1.264,2.96 2.774,2.96 h 5.493 v 5.979 h -5.493 c -4.586,0.001 -8.265,-4.005 -8.265,-8.937 z"
       id="path31"
       inkscape:connector-curvature="0" />
    <path
       d="m 114.848,112.796 h -5.975 l -4.945,-11.965 v 11.965 H 98.44 v -26.89 c 0,-4.926 3.68,-8.939 8.266,-8.939 4.524,0 8.201,4.014 8.201,8.939 v 5.986 c 0,3.812 -2.169,7.033 -5.185,8.347 l 5.126,12.557 z m -8.142,-29.847 c -1.509,0 -2.778,1.314 -2.778,2.957 v 9.011 h 2.778 c 1.506,0 2.713,-1.38 2.713,-3.024 v -5.986 c -10e-4,-1.643 -1.208,-2.958 -2.713,-2.958 z"
       id="path33"
       inkscape:connector-curvature="0" />
    <path
       d="m 133.489,103.913 c 0,4.934 -3.678,8.942 -8.202,8.942 -4.526,0 -8.207,-4.009 -8.207,-8.942 h 5.489 c 0,1.644 1.206,3.026 2.717,3.026 1.506,0 2.773,-1.383 2.773,-3.026 0,-0.657 -0.241,-1.379 -0.603,-1.836 l -8.444,-10.26 c -1.208,-1.512 -1.933,-3.616 -1.933,-5.85 0,-4.933 3.681,-8.938 8.207,-8.938 4.524,0 8.202,4.006 8.202,8.938 h -5.429 c 0,-1.643 -1.267,-2.959 -2.773,-2.959 -1.511,0 -2.717,1.316 -2.717,2.959 0,0.725 0.181,1.38 0.545,1.842 l 8.446,10.254 c 1.265,1.58 1.929,3.618 1.929,5.85 z"
       id="path35"
       inkscape:connector-curvature="0" />
    <path
       d="m 141.97,112.789 h -5.491 V 76.963 h 5.491 v 35.826 z"
       id="path37"
       inkscape:connector-curvature="0" />
    <path
       d="m 161.725,77.009 v 5.982 h -5.49 v 29.847 h -5.487 V 82.991 h -5.489 v -5.982 h 16.466 z"
       id="path39"
       inkscape:connector-curvature="0" />
    <path
       d="m 175.152,112.789 v -11.925 h -5.506 v 11.925 h -5.502 V 85.835 c 0,-4.945 3.687,-8.962 8.285,-8.962 4.535,0 8.227,4.017 8.227,8.962 v 26.954 h -5.504 z m -2.723,-29.918 c -1.572,0 -2.783,1.317 -2.783,2.964 v 9.032 h 5.506 v -9.032 c 0,-1.647 -1.209,-2.964 -2.723,-2.964 z"
       id="path41"
       inkscape:connector-curvature="0" />
    <path
       d="m 190.66,112.789 h -5.491 V 76.88 h 5.491 v 35.909 z"
       id="path43"
       inkscape:connector-curvature="0" />
    <path
       d="m 211.824,112.837 h -5.994 l -4.962,-12.003 v 12.003 h -5.504 V 85.86 c 0,-4.94 3.687,-8.968 8.291,-8.968 4.535,0 8.228,4.027 8.228,8.968 v 6.007 c 0,3.822 -2.177,7.055 -5.201,8.374 l 5.142,12.596 z m -8.169,-29.943 c -1.513,0 -2.787,1.319 -2.787,2.967 v 9.04 h 2.787 c 1.51,0 2.722,-1.386 2.722,-3.033 V 85.86 c -0.001,-1.647 -1.212,-2.966 -2.722,-2.966 z"
       id="path45"
       inkscape:connector-curvature="0" />
    <path
       d="M 215.495,103.8 V 85.787 c 0,-4.949 3.694,-8.971 8.295,-8.971 h 5.508 v 6.002 h -5.508 c -1.512,0 -2.784,1.32 -2.784,2.969 v 3.033 h 8.292 v 6.007 h -8.292 v 8.973 c 0,1.646 1.272,2.969 2.784,2.969 h 5.508 v 5.999 h -5.508 c -4.601,0 -8.295,-4.022 -8.295,-8.968 z"
       id="path47"
       inkscape:connector-curvature="0" />
  </g>
  <g
     id="de_la_Francophonie"
     class="bordeaux"
     style="fill:#ab0132"
     transform="translate(-11.579,-11.329006)">
    <path
       class="gris"
       d="m 11.583,116.583 h 5.862 c 3.209,0 5.82,2.842 5.82,6.385 v 12.685 c 0,3.544 -2.61,6.389 -5.82,6.389 h -5.862 v -25.459 z m 3.895,21.209 h 1.968 c 1.07,0 1.926,-0.975 1.926,-2.14 v -12.685 c 0,-1.212 -0.856,-2.147 -1.926,-2.147 h -1.968 v 16.972 z"
       id="path50"
       inkscape:connector-curvature="0"
       style="fill:#a9aaac" />
    <path
       class="gris"
       d="m 26.045,135.652 v -12.729 c 0,-3.498 2.612,-6.34 5.863,-6.34 h 3.894 v 4.237 h -3.894 c -1.069,0 -1.969,0.936 -1.969,2.103 v 2.141 h 5.862 v 4.246 h -5.862 v 6.343 c 0,1.165 0.899,2.095 1.969,2.095 h 3.894 v 4.245 h -3.894 c -3.251,-0.001 -5.863,-2.847 -5.863,-6.341 z"
       id="path52"
       inkscape:connector-curvature="0"
       style="fill:#a9aaac" />
    <path
       class="gris"
       d="m 53.199,137.792 v 4.249 h -9.714 v -25.458 h 3.894 v 21.209 h 5.82 z"
       id="path54"
       inkscape:connector-curvature="0"
       style="fill:#a9aaac" />
    <path
       class="gris"
       d="m 62.629,141.992 v -8.441 h -3.892 v 8.441 H 54.84 v -19.069 c 0,-3.498 2.611,-6.34 5.865,-6.34 3.209,0 5.815,2.842 5.815,6.34 v 19.069 H 62.629 z M 60.706,120.82 c -1.115,0 -1.968,0.936 -1.968,2.103 v 6.387 h 3.892 v -6.387 c -0.001,-1.167 -0.859,-2.103 -1.924,-2.103 z"
       id="path56"
       inkscape:connector-curvature="0"
       style="fill:#a9aaac" />
    <path
       d="m 73.199,141.992 v -19.069 c 0,-3.498 2.607,-6.34 5.815,-6.34 h 3.894 v 4.237 h -3.894 c -1.07,0 -1.923,0.936 -1.923,2.103 v 2.141 h 5.817 v 4.246 h -5.817 v 12.683 h -3.892 z"
       id="path58"
       inkscape:connector-curvature="0" />
    <path
       d="M 96.987,142.085 H 92.75 l -3.509,-8.488 v 8.488 h -3.894 v -19.073 c 0,-3.497 2.61,-6.341 5.862,-6.341 3.208,0 5.82,2.844 5.82,6.341 v 4.243 c 0,2.704 -1.54,4.989 -3.682,5.925 l 3.64,8.905 z M 91.21,120.921 c -1.069,0 -1.968,0.926 -1.968,2.091 v 6.389 h 1.968 c 1.072,0 1.925,-0.979 1.925,-2.146 v -4.243 c 0,-1.165 -0.853,-2.091 -1.925,-2.091 z"
       id="path60"
       inkscape:connector-curvature="0" />
    <path
       d="m 107.042,141.992 v -8.441 h -3.895 v 8.441 h -3.893 v -19.069 c 0,-3.498 2.611,-6.34 5.862,-6.34 3.208,0 5.819,2.842 5.819,6.34 v 19.069 h -3.893 z m -1.926,-21.172 c -1.115,0 -1.969,0.936 -1.969,2.103 v 6.387 h 3.895 v -6.387 c 0,-1.167 -0.858,-2.103 -1.926,-2.103 z"
       id="path62"
       inkscape:connector-curvature="0" />
    <path
       d="m 125.592,122.968 v 19.073 H 121.7 v -19.073 c 0,-1.164 -0.856,-2.147 -1.924,-2.147 -1.072,0 -1.968,0.983 -1.968,2.147 v 19.073 h -3.896 v -19.073 c 0,-3.496 2.612,-6.385 5.864,-6.385 3.207,0 5.816,2.889 5.816,6.385 z"
       id="path64"
       inkscape:connector-curvature="0" />
    <path
       d="m 134.106,142.085 c -3.208,0 -5.817,-2.844 -5.817,-6.342 v -12.731 c 0,-3.497 2.609,-6.386 5.817,-6.386 3.208,0 5.82,2.889 5.82,6.386 h -3.893 c 0,-1.165 -0.854,-2.144 -1.927,-2.144 -1.067,0 -1.966,0.979 -1.966,2.144 v 12.731 c 0,1.166 0.898,2.1 1.966,2.1 1.073,0 1.927,-0.934 1.927,-2.1 h 3.893 c 0.001,3.498 -2.611,6.342 -5.82,6.342 z"
       id="path66"
       inkscape:connector-curvature="0" />
    <path
       d="m 147.26,142.085 c -3.206,0 -5.817,-2.844 -5.817,-6.342 v -12.731 c 0,-3.497 2.611,-6.341 5.817,-6.341 3.213,0 5.821,2.844 5.821,6.341 v 12.731 c 0.001,3.498 -2.608,6.342 -5.821,6.342 z m 0,-21.164 c -1.067,0 -1.967,0.926 -1.967,2.091 v 12.731 c 0,1.166 0.9,2.1 1.967,2.1 1.071,0 1.927,-0.934 1.927,-2.1 v -12.731 c 0,-1.165 -0.856,-2.091 -1.927,-2.091 z"
       id="path68"
       inkscape:connector-curvature="0" />
    <path
       d="m 161.293,116.626 c 3.255,0 5.866,2.846 5.866,6.386 v 4.243 c 0,3.496 -2.611,6.342 -5.866,6.342 h -1.924 v 8.488 h -3.894 v -19.073 c 0.001,-3.54 2.612,-6.386 5.818,-6.386 z m 0,4.242 c -1.065,0 -1.924,0.979 -1.924,2.144 v 6.346 h 1.924 c 1.071,0 1.974,-0.936 1.974,-2.103 v -4.243 c 0,-1.165 -0.902,-2.144 -1.974,-2.144 z"
       id="path70"
       inkscape:connector-curvature="0" />
    <path
       d="m 176.375,116.583 h 3.896 v 25.458 h -3.896 V 129.31 h -3.896 v 12.731 h -3.848 v -25.458 h 3.848 v 8.48 h 3.896 v -8.48 z"
       id="path72"
       inkscape:connector-curvature="0" />
    <path
       d="m 188.359,142.085 c -3.212,0 -5.822,-2.844 -5.822,-6.342 v -12.731 c 0,-3.497 2.61,-6.341 5.822,-6.341 3.204,0 5.814,2.844 5.814,6.341 v 12.731 c 0,3.498 -2.61,6.342 -5.814,6.342 z m 0,-21.164 c -1.074,0 -1.971,0.926 -1.971,2.091 v 12.731 c 0,1.166 0.896,2.1 1.971,2.1 1.068,0 1.923,-0.934 1.923,-2.1 v -12.731 c 0,-1.165 -0.855,-2.091 -1.923,-2.091 z"
       id="path74"
       inkscape:connector-curvature="0" />
    <path
       d="m 209.001,122.968 v 19.073 h -3.891 v -19.073 c 0,-1.164 -0.855,-2.147 -1.926,-2.147 -1.071,0 -1.97,0.983 -1.97,2.147 v 19.073 h -3.892 v -19.073 c 0,-3.496 2.611,-6.385 5.861,-6.385 3.21,0 5.818,2.889 5.818,6.385 z"
       id="path76"
       inkscape:connector-curvature="0" />
    <path
       d="m 216.388,141.992 h -3.895 v -25.409 h 3.895 v 25.409 z"
       id="path78"
       inkscape:connector-curvature="0" />
    <path
       d="m 219.537,135.652 v -12.729 c 0,-3.498 2.61,-6.34 5.86,-6.34 h 3.896 v 4.237 h -3.896 c -1.071,0 -1.967,0.936 -1.967,2.103 v 2.141 h 5.863 v 4.246 h -5.863 v 6.343 c 0,1.165 0.896,2.095 1.967,2.095 h 3.896 v 4.245 h -3.896 c -3.25,-0.001 -5.86,-2.847 -5.86,-6.341 z"
       id="path80"
       inkscape:connector-curvature="0" />
  </g>
  <g
     id="couleurs"
     transform="translate(-11.579,-11.329006)">
    <rect
       class="bleu"
       x="11.579"
       y="153.218"
       width="43.542"
       height="8.5039997"
       id="rect83"
       style="fill:#0198e9" />
    <rect
       class="jaune"
       x="55.120998"
       y="153.218"
       width="43.542"
       height="8.5039997"
       id="rect85"
       style="fill:#fdcd01" />
    <rect
       class="vert"
       x="98.663002"
       y="153.218"
       width="43.542999"
       height="8.5039997"
       id="rect87"
       style="fill:#7eb301" />
    <rect
       class="mauve"
       x="142.20599"
       y="153.218"
       width="43.542"
       height="8.5039997"
       id="rect89"
       style="fill:#5d0073" />
    <rect
       class="rouge"
       x="185.748"
       y="153.218"
       width="43.542999"
       height="8.5039997"
       id="rect91"
       style="fill:#e40001" />
  </g>
</svg>
